<!--
	Attribution:  Logo design of the letter R, a combination of a goose feather pen
	Author:       ruslyeffendi3120760
	Author URL:   https://www.vecteezy.com/members/ruslyeffendi3120760
	Source URL:          https://www.vecteezy.com/vector-art/4565911-the-initial-logo-design-of-the-letter-r-a-combination-of-a-goose-feather-pen-is-unique-and-attractive
-->
<svg version="1.2" xmlns="http://www.w3.org/2000/svg" viewBox="0 0 864 917" width="1728" height="1834">
	<title>reverse</title>
	<style>
		.s0 { fill: #0070f3 } 
	</style>
	<path id="Layer" fill-rule="evenodd" class="s0" d="m25.2 812c20.5-40.8 49.2-95.9 84.8-158.3 73.9-129.7 177.7-291.3 300.6-424.1v3.6l-5.8 7.3c-7 9-15.5 19.8-25.2 32.3-9.9 12.4-20.6 26.7-32 42.5-11.4 15.8-23.9 32.9-37 51-13.1 18.1-25.9 37.9-39.6 58.1q-10.2 15.2-20.7 30.9c-6.6 10.6-13.4 21.4-20.1 32.2-13.4 21.9-27.8 43.6-40.6 66.3-13 22.5-26 45-38.9 67.1-12.2 22.5-24.2 44.6-35.8 66q-2.5 4.5-4.9 8.9c-9.9 18.2-19.1 36.1-27.9 53.3-10.1 19.8-19.8 38.6-28.6 55.9-20.9 41.7-35 85.5-44.7 105.8-36.4-118.7 46.6-313.3 101.2-493.3 44-145 69.7-280.5 0-359.5-23.1-26.1-56.6-46.2-103.4-58.2h460.4c38.9 0 75.7 5 109.7 14.4-58.8 45-114.3 94.5-166.1 147.5-123.3 126.3-225.3 273.2-300.6 431.2-33.9 71.1-62.3 144.4-84.8 219.1zm35.7 14.7c17.4 3.4 33.9 5.6 49.1 7 111.7 10.6 156.3-21.2 0 37.3-27.4 10.3-60.8 23.3-101.2 39.8 9.5-17 31.7-47.1 52.1-84.1zm183.6-78.7c6.8-7.8 125.4-36.9 166.1-51.8 7.5-2.7 12.4-5 13.4-6.6l-13.4-1.2-37.8-3.4c13.3-7.1 25.9-15.2 37.8-24.1 52.5-39.7 89.9-96.7 101.8-160.8-21.7 4.4-43.5 8.8-65.2 13.2q52.6-109.6 105.1-219.2c-28 12.4-55.9 24.9-83.9 37.3 103.7-61 169.8-170.8 178.8-288.9 90 48.8 147.1 137.6 147.1 254.7 0 158.7-103.9 259.2-239.1 289.3l285.2 323.2-422.4-184.3-7.4 0.9zm182.5-535.5c1.7-2.1 3.6-3.7 5.4-4.5 1.7-2.8 2.7-4.3 2.8-4.3q-12.5 12.7-24.6 25.9v3.6zm8.1-8.8q0 0 0 0 0 0 0 0z"/>
</svg>
